<?xml version="1.0" standalone="no"?>
<!DOCTYPE svg PUBLIC "-//W3C//DTD SVG 20010904//EN"
 "http://www.w3.org/TR/2001/REC-SVG-20010904/DTD/svg10.dtd">
<svg version="1.0" xmlns="http://www.w3.org/2000/svg"
 width="438.000000pt" height="450.000000pt" viewBox="0 0 438.000000 450.000000"
 preserveAspectRatio="xMidYMid meet">

<g transform="translate(0.000000,450.000000) scale(0.100000,-0.100000)"
fill="#000000" stroke="none">
<path d="M2604 3977 c-59 -44 -119 -104 -163 -164 l-24 -32 -77 6 c-153 12
-303 -43 -420 -153 -110 -104 -161 -226 -165 -389 l-1 -90 -75 -7 c-40 -3 -76
-5 -78 -2 -2 2 3 12 12 22 9 10 26 39 37 66 27 61 21 93 -24 111 -40 17 -60
40 -52 60 6 16 12 19 58 29 67 15 89 90 42 146 -51 60 -128 78 -176 40 -14
-10 -35 -46 -47 -79 -18 -49 -30 -67 -65 -90 -54 -37 -104 -94 -123 -139 -14
-34 -14 -58 1 -93 6 -13 -2 -19 -37 -27 -97 -25 -142 -128 -142 -322 1 -123
13 -178 65 -302 l28 -66 -30 -84 c-17 -46 -48 -108 -68 -138 -50 -74 -73 -149
-73 -235 1 -120 48 -207 167 -304 101 -83 160 -152 204 -240 37 -74 37 -76 37
-200 0 -124 -1 -127 -39 -216 -53 -124 -53 -130 6 -129 45 0 47 -1 62 -39 12
-32 19 -38 36 -32 18 6 20 2 20 -32 0 -21 -7 -47 -15 -57 -9 -12 -15 -42 -15
-78 0 -49 4 -63 25 -83 13 -14 36 -25 50 -25 31 0 53 -11 112 -56 54 -41 106
-45 147 -13 38 30 30 52 -51 149 -36 44 -77 98 -89 120 -28 49 -41 109 -26
119 7 4 -9 62 -43 162 -37 110 -56 187 -65 258 l-12 101 -109 187 c-60 103
-109 194 -109 204 0 10 -14 27 -30 39 -29 20 -69 80 -54 80 4 0 22 -17 40 -39
22 -25 56 -48 99 -66 76 -33 89 -54 15 -26 -29 11 -50 15 -50 9 0 -11 23 -53
141 -256 71 -122 78 -138 84 -205 8 -89 34 -190 82 -325 l37 -102 68 0 c66 0
68 -1 84 -31 12 -25 14 -37 5 -56 -6 -13 -11 -47 -11 -74 0 -42 5 -55 29 -80
16 -16 36 -29 43 -29 8 0 25 -12 39 -26 55 -59 147 -81 208 -49 32 16 41 33
41 78 0 26 -11 42 -57 85 -73 66 -63 62 186 -93 112 -69 210 -124 218 -121 18
7 1417 811 1465 842 35 22 41 36 25 61 -5 7 3 28 17 50 128 194 46 459 -171
561 -49 23 -71 27 -148 27 -78 0 -98 -4 -150 -28 -33 -16 -69 -37 -81 -48
l-21 -20 -87 40 c-71 33 -86 44 -82 58 10 34 56 380 75 573 28 274 47 608 35
619 -5 4 -121 -2 -259 -15 -334 -30 -305 -31 -305 12 0 39 58 130 118 187 l30
28 38 -32 c22 -18 58 -50 81 -72 22 -22 46 -36 51 -33 20 12 52 116 52 166 0
57 5 51 -127 163 l-92 79 2 46 2 47 76 38 c100 50 170 58 266 29 76 -24 149
-68 189 -115 l27 -32 -37 -8 c-40 -10 -86 -57 -86 -88 0 -28 44 -69 75 -69 40
0 85 50 85 94 0 44 12 45 103 15 132 -44 255 -145 318 -261 31 -59 34 -69 34
-158 0 -82 -2 -95 -16 -92 -9 1 -21 -3 -26 -10 -6 -7 -72 -155 -146 -329 -112
-261 -137 -331 -146 -395 -7 -44 -14 -89 -17 -101 -8 -39 9 -26 73 56 62 77
112 185 328 698 12 29 12 35 -2 49 -12 12 -16 38 -17 113 -1 91 -3 102 -38
173 -68 136 -223 255 -387 297 -62 15 -74 22 -99 57 -72 99 -249 167 -373 144
-30 -6 -88 -27 -129 -47 -54 -26 -86 -36 -113 -34 -21 2 -43 -2 -50 -7 -9 -8
-36 10 -97 63 -47 41 -92 74 -101 75 -9 0 -43 -20 -75 -43z m135 -14 c31 -26
89 -79 129 -118 40 -38 79 -72 87 -75 8 -3 55 -40 105 -84 l92 -78 -57 -23
c-99 -40 -176 -106 -241 -205 l-29 -43 -16 54 c-20 65 -78 166 -132 232 -48
59 -102 96 -185 129 l-63 25 27 34 c54 67 100 112 158 155 32 24 61 44 64 44
2 0 30 -21 61 -47z m817 -228 c10 -26 -16 -75 -44 -82 -53 -13 -79 33 -41 73
26 27 76 33 85 9z m-1164 -56 c114 -38 193 -110 251 -229 30 -60 32 -72 32
-165 0 -94 -2 -104 -34 -170 -28 -55 -59 -94 -146 -181 -110 -109 -166 -147
-241 -164 -19 -4 -34 -4 -34 0 0 8 53 69 166 190 77 82 98 109 135 175 31 54
34 68 34 140 0 91 -19 141 -81 214 -54 63 -122 93 -220 99 -259 14 -452 -168
-455 -430 l-1 -83 -14 50 c-18 67 -18 179 2 246 42 144 179 271 337 314 79 21
196 19 269 -6z m-265 -266 c-14 -16 -36 -50 -48 -77 -19 -43 -21 -60 -15 -130
5 -68 3 -86 -12 -116 -24 -43 -57 -68 -102 -75 l-35 -6 30 14 c57 27 69 50 77
153 7 108 35 180 88 232 41 39 54 43 17 5z m270 8 c54 -25 93 -89 93 -153 0
-44 -1 -46 -32 -51 -73 -13 -236 -19 -241 -10 -6 10 37 205 49 224 9 16 87 9
131 -10z m-152 -8 c-12 -32 -45 -178 -45 -200 0 -21 -5 -23 -55 -23 -62 0 -62
1 -44 79 12 55 40 94 92 132 46 33 62 37 52 12z m1115 -190 c0 -182 -96 -1074
-120 -1112 -4 -8 -51 9 -145 54 -75 36 -139 65 -140 65 -2 0 -6 -30 -10 -67
-16 -154 -68 -226 -230 -316 -55 -30 -114 -70 -132 -89 -35 -37 -63 -94 -63
-132 0 -22 -5 -25 -62 -31 -154 -18 -380 -117 -610 -269 l-26 -17 -45 138
c-29 88 -55 196 -72 298 -33 200 -67 354 -94 425 -19 50 -21 76 -21 297 l0
241 113 -35 c76 -23 131 -48 170 -75 47 -32 60 -38 72 -28 8 7 15 18 15 25 0
9 15 13 48 12 26 -1 59 2 73 6 l26 7 -1 -98 c-1 -125 21 -198 75 -247 83 -75
205 -51 249 48 15 33 18 58 14 126 -4 74 -1 94 18 141 18 43 28 56 48 58 35 5
52 22 46 45 -4 15 11 37 51 81 128 138 193 247 217 366 12 61 15 65 42 68 77
10 414 40 452 41 40 1 42 -1 42 -26z m-1791 -28 c-11 -59 -31 -97 -69 -129
-49 -41 -86 -33 -125 27 -25 39 -29 27 -11 -28 23 -67 20 -69 -66 -50 -34 8
-56 28 -63 58 -6 23 -2 29 31 49 21 12 44 23 52 24 7 1 22 14 33 28 11 13 30
28 42 32 19 6 138 29 173 33 8 1 9 -12 3 -44z m2477 -22 c-52 -136 -263 -610
-270 -603 -4 4 44 130 109 282 65 150 124 288 132 306 14 33 41 47 29 15z
m-2756 -2 c0 -5 -16 -21 -36 -36 -30 -23 -35 -32 -32 -62 4 -47 40 -74 109
-81 41 -4 55 -1 64 12 11 14 14 15 25 1 7 -8 26 -15 42 -15 16 0 43 -7 61 -16
26 -14 366 -212 375 -219 7 -5 -12 -86 -23 -102 -12 -16 -27 -12 -204 47 -105
35 -194 61 -197 58 -3 -3 14 -12 38 -21 39 -13 43 -17 41 -47 -1 -19 -11 -43
-26 -58 -35 -39 -46 -63 -53 -125 -8 -65 -11 -67 -124 -67 -115 0 -135 14
-182 126 -53 129 -68 195 -68 301 0 156 32 256 93 293 32 20 97 27 97 11z
m1152 -44 c-17 -23 -71 -87 -121 -142 -50 -55 -108 -128 -129 -161 l-37 -61
-67 -6 c-135 -11 -157 -5 -343 107 l-170 101 -6 65 c-4 36 -6 66 -5 67 1 1 46
5 101 8 l100 6 29 -46 c47 -76 121 -109 196 -86 50 15 98 70 106 121 4 22 7
41 8 41 4 4 260 27 309 28 l58 1 -29 -43z m-912 -107 c0 -28 -2 -29 -26 -20
-14 6 -37 10 -52 11 -23 0 -21 3 18 19 60 24 60 24 60 -10z m930 -235 c0 -3
-12 -10 -26 -15 -36 -14 -26 -31 28 -45 47 -12 78 -30 78 -46 0 -5 -62 -6
-142 -3 -135 6 -148 5 -228 -19 -100 -31 -160 -41 -177 -30 -9 7 -9 20 0 58
l13 49 54 3 c167 9 210 14 260 32 50 19 140 28 140 16z m-490 -45 c16 0 17 -4
9 -37 -15 -58 -40 -123 -47 -123 -4 0 -17 8 -30 18 -22 17 -22 19 -7 55 8 20
15 47 15 60 0 29 9 39 28 32 7 -3 22 -5 32 -5z m220 -104 c0 -3 -10 -21 -21
-41 -12 -19 -27 -54 -34 -78 l-14 -42 0 61 c-1 60 10 87 39 97 20 7 30 8 30 3z
m-640 -163 c-1 -152 -9 -181 -25 -85 -4 23 -13 49 -21 56 -16 17 -18 57 -4
105 9 33 36 81 45 81 3 0 5 -71 5 -157z m2224 60 c3 -8 10 -11 16 -8 17 11 11
-5 -16 -41 -38 -49 -54 -45 -54 15 0 45 2 49 24 49 14 0 27 -7 30 -15z m-2399
-108 l120 0 9 -38 c7 -26 6 -41 -2 -49 -16 -16 -336 -18 -352 -2 -7 7 -4 29
11 72 l21 62 36 -22 c33 -20 50 -23 157 -23z m2350 6 c3 -5 1 -12 -5 -16 -5
-3 -10 1 -10 9 0 18 6 21 15 7z m-392 -392 l347 -163 0 -46 c0 -107 -50 -201
-190 -355 -90 -101 -122 -149 -140 -215 -7 -25 -14 -51 -16 -58 -2 -8 -143 58
-405 188 l-401 201 6 41 c14 87 57 134 189 205 99 53 165 111 195 169 22 43
42 128 42 176 0 20 4 29 13 25 6 -2 168 -78 360 -168z m462 36 c243 -64 350
-339 219 -562 -35 -60 -54 -49 -54 31 l0 62 -141 67 c-115 54 -140 69 -136 84
3 10 9 41 12 70 l7 52 -123 58 -123 58 50 32 c53 35 137 61 194 62 20 1 63 -6
95 -14z m13 -412 c67 -31 122 -59 122 -62 0 -3 -39 -26 -87 -51 -205 -106
-473 -282 -473 -312 0 -4 -4 -8 -10 -8 -13 0 15 77 45 121 13 21 67 85 119
144 57 64 107 130 123 165 16 33 30 59 33 60 3 0 60 -25 128 -57z m-895 -279
l392 -197 -60 -13 c-136 -28 -374 -125 -591 -238 l-120 -64 -341 187 c-314
171 -363 203 -363 236 0 9 175 114 277 166 142 73 278 118 356 119 55 0 74 -8
450 -196z m1037 159 c0 -35 -4 -40 -51 -66 -27 -15 -55 -24 -61 -21 -7 5 -8 2
-4 -5 6 -8 2 -11 -10 -9 -12 2 -18 -2 -16 -10 2 -9 -4 -12 -15 -8 -10 3 -25 1
-33 -5 -11 -8 -9 -9 10 -3 30 8 27 5 -24 -26 -22 -13 -36 -18 -32 -12 10 17
-7 15 -30 -4 -16 -13 -16 -15 -1 -10 24 7 21 -1 -4 -15 -17 -8 -20 -8 -14 1 5
8 3 11 -6 8 -8 -3 -14 -10 -14 -15 0 -6 -4 -15 -9 -20 -5 -5 -6 -3 -2 5 4 6 3
12 -2 12 -15 0 -192 -127 -242 -173 l-45 -42 45 48 c25 26 80 73 122 104 43
31 76 59 73 61 -7 7 -110 -67 -176 -126 -32 -29 -56 -47 -53 -38 7 19 118 109
197 161 31 21 55 40 52 43 -5 5 -103 -58 -182 -118 -24 -17 -43 -29 -43 -27 0
10 158 125 241 175 92 55 309 172 322 172 4 0 7 -17 7 -37z m15 -75 c14 -6 25
-14 25 -17 0 -3 -127 -79 -283 -168 -155 -90 -297 -173 -316 -185 l-34 -22 12
22 c14 26 149 132 251 197 68 44 310 185 316 185 2 0 15 -5 29 -12z m-1837
-389 c141 -78 289 -159 329 -180 l72 -40 -6 -72 c-3 -40 -7 -74 -9 -76 -2 -3
-210 119 -507 296 -53 32 -62 42 -102 124 -25 49 -43 89 -39 89 3 0 121 -64
262 -141z m1197 81 c-3 -5 -18 -10 -33 -10 -65 0 -283 -80 -463 -171 -56 -27
-98 -53 -95 -56 3 -3 11 -1 18 5 26 21 286 132 388 165 96 32 202 56 189 43
-3 -3 -30 -10 -60 -16 -82 -15 -259 -85 -402 -157 -71 -36 -126 -67 -124 -70
3 -2 54 20 113 50 183 91 394 168 458 167 12 -1 -21 -12 -73 -25 -114 -30
-283 -102 -447 -192 -68 -37 -122 -68 -121 -69 1 -1 85 39 187 89 197 98 343
154 425 162 49 6 48 5 -30 -23 -160 -57 -437 -186 -632 -295 l-83 -46 0 73 0
73 103 55 c179 97 428 201 567 237 84 22 124 26 115 11z m-1905 -130 c0 -20
-5 -30 -15 -30 -18 0 -18 2 -3 35 15 32 18 32 18 -5z m1880 15 c0 -2 -23 -16
-51 -30 -27 -14 -192 -107 -366 -206 -174 -100 -330 -188 -348 -196 l-32 -15
-286 176 c-157 98 -288 184 -291 192 -6 15 13 54 25 54 4 0 126 -70 271 -156
144 -86 273 -161 285 -166 21 -10 42 -1 258 117 76 41 330 159 425 196 97 39
110 43 110 34z m-1400 -67 c19 -34 54 -80 78 -104 23 -23 42 -47 42 -52 0 -26
-102 -20 -135 8 -8 7 -26 37 -40 68 -14 31 -37 71 -50 88 l-25 32 38 10 c20 5
42 10 47 11 6 0 26 -27 45 -61z m-290 -80 c5 -24 21 -64 35 -90 14 -27 22 -48
18 -48 -4 0 -37 10 -75 22 l-68 22 0 47 c0 26 -3 54 -6 62 -6 16 11 24 58 26
24 1 28 -4 38 -41z m330 -204 c101 -70 133 -77 178 -39 17 14 33 25 36 25 14
0 4 -22 -19 -45 -45 -46 -139 -30 -208 36 -12 12 -34 26 -50 31 -15 6 -32 18
-37 28 -9 17 -7 17 23 7 17 -6 52 -26 77 -43z m-379 -54 c9 0 48 -16 86 -37
49 -26 81 -36 116 -37 40 -1 45 -3 30 -13 -30 -23 -85 -16 -123 16 -45 37 -93
61 -121 61 -23 0 -59 26 -59 42 0 5 12 0 26 -11 15 -12 35 -21 45 -21z"/>
<path d="M2224 2206 c-105 -46 -119 -204 -26 -288 93 -84 226 -42 263 81 17
59 -18 152 -74 192 -45 33 -109 38 -163 15z m111 -27 c5 -5 0 -9 -15 -9 -47 0
-116 -70 -130 -133 l-7 -32 -12 29 c-22 55 12 125 73 152 31 14 73 11 91 -7z"/>
<path d="M3871 1961 c83 -46 132 -138 112 -212 -6 -21 -7 -39 -2 -39 12 0 22
66 16 106 -11 67 -76 142 -137 158 -18 5 -15 1 11 -13z"/>
<path d="M3820 1845 c-26 -32 13 -81 48 -59 34 22 22 74 -18 74 -10 0 -23 -7
-30 -15z m50 -11 c11 -12 10 -18 -3 -32 -16 -15 -18 -15 -34 0 -13 14 -14 20
-3 32 7 9 16 16 20 16 4 0 13 -7 20 -16z"/>
<path d="M3717 1449 c-60 -33 -106 -63 -104 -66 5 -5 217 115 217 123 0 6 0 6
-113 -57z"/>
<path d="M3825 1480 c-3 -6 1 -7 9 -4 18 7 21 14 7 14 -6 0 -13 -4 -16 -10z"/>
<path d="M3760 1447 c-19 -11 -66 -38 -103 -60 -38 -21 -66 -41 -63 -44 2 -3
32 11 64 31 61 37 78 43 67 26 -3 -5 -2 -10 4 -10 15 0 23 18 9 22 -6 2 9 16
33 31 24 14 40 26 34 26 -5 0 -26 -10 -45 -22z"/>
<path d="M2690 905 c-14 -8 -20 -14 -14 -15 5 0 19 7 30 15 24 18 16 19 -16 0z"/>
<path d="M2698 874 c-38 -20 -36 -28 2 -9 17 9 30 18 30 20 0 7 -1 6 -32 -11z"/>
<path d="M603 2726 c-33 -24 -69 -55 -81 -70 -18 -23 -26 -26 -56 -21 -29 6
-39 3 -60 -19 -31 -30 -32 -50 -6 -93 18 -31 18 -35 4 -75 -22 -59 -29 -213
-15 -290 37 -189 160 -369 315 -462 66 -40 164 -74 216 -76 62 -3 57 2 -19 15
-193 35 -373 189 -458 390 -54 127 -65 289 -28 413 15 49 17 52 50 52 24 0 39
7 54 26 25 32 26 52 5 83 -16 22 -15 24 17 58 19 19 60 52 93 74 32 21 52 39
43 39 -8 0 -42 -20 -74 -44z m-101 -123 c37 -33 11 -103 -39 -103 -48 0 -84
75 -51 108 17 17 68 15 90 -5z"/>
</g>
</svg>
