<?xml version="1.0" standalone="no"?>
<!DOCTYPE svg PUBLIC "-//W3C//DTD SVG 20010904//EN"
 "http://www.w3.org/TR/2001/REC-SVG-20010904/DTD/svg10.dtd">
<svg version="1.0" xmlns="http://www.w3.org/2000/svg"
 width="225.000000pt" height="225.000000pt" viewBox="0 0 225.000000 225.000000"
 preserveAspectRatio="xMidYMid meet">

<g transform="translate(0.000000,225.000000) scale(0.100000,-0.100000)"
fill="#000000" stroke="none">
<path d="M1385 2199 c-22 -11 -56 -35 -75 -54 -24 -23 -45 -35 -64 -35 -95 0
-202 -83 -230 -179 -9 -30 -16 -66 -16 -81 0 -52 31 -131 68 -172 40 -45 121
-88 165 -88 15 0 51 -13 80 -29 28 -16 73 -33 100 -36 39 -6 47 -11 47 -29 0
-12 -12 -39 -26 -59 -14 -21 -23 -41 -20 -44 3 -3 26 0 51 6 85 21 160 84 172
142 4 22 13 28 54 37 158 37 245 193 192 347 -19 58 -85 128 -142 151 -21 8
-53 33 -71 56 -65 81 -196 112 -285 67z m114 -123 c57 -30 67 -107 22 -159
-25 -27 -30 -44 -33 -92 -3 -65 -23 -90 -52 -66 -12 10 -16 33 -16 96 l0 83
29 5 c31 6 46 32 35 60 -14 37 -70 31 -80 -9 -5 -19 -13 -24 -36 -24 -29 0
-30 2 -24 33 13 69 90 106 155 73z m-3 -371 c33 -50 -20 -104 -71 -71 -29 19
-32 51 -8 78 23 26 59 23 79 -7z"/>
<path d="M824 1580 c-23 -5 -72 -22 -110 -38 -60 -25 -69 -32 -72 -57 -2 -16
-15 -44 -30 -63 -30 -39 -42 -130 -24 -181 7 -19 7 -33 1 -36 -14 -9 -10 -77
6 -105 8 -14 24 -45 35 -70 40 -88 55 -112 99 -156 44 -45 44 -45 32 -85 -6
-21 -23 -46 -36 -55 -14 -9 -80 -32 -148 -51 -118 -33 -161 -56 -171 -92 -3
-9 -17 -129 -31 -268 -20 -190 -24 -257 -15 -272 11 -21 16 -21 539 -21 466 0
530 2 541 16 11 12 9 61 -13 270 -18 164 -33 266 -43 286 -18 34 -41 45 -176
83 -124 35 -154 53 -169 104 -12 40 -12 40 32 83 24 24 57 70 72 103 16 33 39
81 53 106 25 49 32 107 14 125 -8 8 -7 20 0 40 16 41 15 133 -3 175 -39 94
-144 158 -270 164 -40 2 -91 0 -113 -5z"/>
</g>
</svg>
