<?xml version="1.0" encoding="UTF-8"?>
<svg version="1.1" xmlns="http://www.w3.org/2000/svg" width="225" height="225">
<path d="M0 0 C74.25 0 148.5 0 225 0 C225 74.25 225 148.5 225 225 C150.75 225 76.5 225 0 225 C0 150.75 0 76.5 0 0 Z " fill="#7D7D7D" transform="translate(0,0)"/>
<path d="M0 0 C33.66 0 67.32 0 102 0 C102 24.57142857 102 24.57142857 97 36 C97 36.33 97 36.66 97 37 C64.99 37 32.98 37 0 37 C0 36.34 0 35.68 0 35 C-0.99 34.67 -1.98 34.34 -3 34 C-6.15055477 29.15299266 -6.6541483 24.61267908 -7 19 C-7.12375 17.865625 -7.2475 16.73125 -7.375 15.5625 C-6.83417176 10.42463173 -4.51063805 6.45638254 -2 2 C-1.34 2 -0.68 2 0 2 C0 1.34 0 0.68 0 0 Z " fill="#050505" transform="translate(110,21)"/>
<path d="M0 0 C36.96 0 73.92 0 112 0 C111.34 1.65 110.68 3.3 110 5 C110 9.29 110 13.58 110 18 C74.69 18 39.38 18 3 18 C-2.0625 6.1875 -2.0625 6.1875 0 0 Z " fill="#191919" transform="translate(103,0)"/>
</svg>
